<svg width="16" height="16" viewBox="0 0 16 16" fill="none" xmlns="http://www.w3.org/2000/svg">
<rect width="16" height="16" fill="white"/>
<rect x="1.98999" y="3" width="12" height="10" fill="#F8EE96"/>
<path d="M14.49 3H7.69995L6.84998 2.15002L6.5 2H1.5L1 2.5V6.5V13.5L1.5 14H14.5L15 13.5V9V3.5L14.49 3ZM13.98 11.49V13H1.97998V11.49V7.48999V7H6.46997L6.81995 6.84998L7.67993 5.98999H13.99V7.48999L13.98 11.49ZM13.98 5H7.47998L7.13 5.15002L6.27002 6.01001H1.98999V3.01001H6.28003L7.13 3.85999L7.48999 4.01001H13.99L13.98 5Z" fill="#424242"/>
</svg>
