<svg width="20" height="19" viewBox="0 0 20 19" fill="none" xmlns="http://www.w3.org/2000/svg">
<path fill-rule="evenodd" clip-rule="evenodd" d="M11.0304 1.71908L13.3606 5.65962L17.6574 6.77531L19.5139 7.25735L18.3142 8.75387L15.4289 12.3529L15.7506 17.0392L15.8852 19L14.0781 18.2273L10.0139 16.4896L5.94976 18.2273L4.14259 19L4.2772 17.0392L4.59892 12.3529L1.71364 8.75387L0.513916 7.25735L2.3704 6.77531L6.66726 5.65962L8.99739 1.71908L10.0139 0L11.0304 1.71908ZM12.9208 7.35345L16.4577 8.27183L14.0635 11.2583L13.6362 11.7913L13.683 12.4728L13.9435 16.2665L10.7019 14.8805L10.0139 14.5864L9.32592 14.8805L6.08437 16.2665L6.34481 12.4728L6.39159 11.7913L5.96432 11.2583L3.57013 8.27183L7.10707 7.35345L7.80604 7.17196L8.17361 6.55035L10.0139 3.43816L11.8542 6.55035L12.2218 7.17196L12.9208 7.35345Z" fill="#171717"/>
</svg>
