<svg width="20" height="20" viewBox="0 0 20 20" fill="none" xmlns="http://www.w3.org/2000/svg">
<path d="M3.16667 4.27113L3.51487 4.39877L3.79103 4.5L3.51487 4.60123L3.16667 4.72887L2.81846 4.60123L2.5423 4.5L2.81846 4.39877L3.16667 4.27113Z" stroke="#171717" stroke-width="1.75"/>
<path d="M6.16667 15.2711L6.51487 15.3988L6.79103 15.5L6.51487 15.6012L6.16667 15.7289L5.81846 15.6012L5.5423 15.5L5.81846 15.3988L6.16667 15.2711Z" stroke="#171717" stroke-width="1.75"/>
<path d="M12.8333 2.38967L14.6613 6.27723L14.7293 6.42187L14.844 6.53312L18.0762 9.66671L14.844 12.8003L14.7293 12.9115L14.6613 13.0562L12.8333 16.9437L11.0053 13.0562L10.9372 12.9115L10.8225 12.8003L7.59031 9.66671L10.8225 6.53312L10.9372 6.42187L11.0053 6.27723L12.8333 2.38967Z" stroke="#171717" stroke-width="1.75"/>
</svg>
